<?xml version="1.0" encoding="UTF-8"?>
<svg width="21px" height="20px" viewBox="0 0 21 20" version="1.1" xmlns="http://www.w3.org/2000/svg" xmlns:xlink="http://www.w3.org/1999/xlink">
    <!-- Generator: Sketch 50.2 (55047) - http://www.bohemiancoding.com/sketch -->
    <title>icon-search</title>
    <desc>Created with Sketch.</desc>
    <defs></defs>
    <g id="Symbols" stroke="none" stroke-width="1" fill="none" fill-rule="evenodd">
        <g id="Navigation" transform="translate(-1145.000000, -28.000000)" fill="#000000" fill-rule="nonzero">
            <g id="icon-search">
                <path d="M1152.76494,30.4531143 C1155.69946,30.4531143 1158.07836,32.832013 1158.07836,35.7665332 C1158.07836,38.7010534 1155.69946,41.0799521 1152.76494,41.0799521 C1149.83042,41.0799521 1147.45152,38.7010534 1147.45152,35.7665332 C1147.45152,32.832013 1149.83042,30.4531143 1152.76494,30.4531143 L1152.76494,30.4531143 Z M1159.08442,40.2263064 L1165.12351,46.2653942 L1163.38891,48 L1157.37259,41.9836803 C1155.24536,43.5648718 1152.36333,44.0157709 1149.74111,42.9218429 C1146.33925,41.4820362 1144.42186,37.8457188 1145.15552,34.2253003 C1145.88918,30.6048819 1149.07093,28.0018788 1152.76494,28.0000113 C1153.80374,27.9982346 1154.83221,28.2061219 1155.78877,28.6112235 C1159.71998,30.2939584 1161.55192,34.8375203 1159.88733,38.7764523 C1159.66722,39.297301 1159.39692,39.7816749 1159.08442,40.2263064 Z"></path>
            </g>
        </g>
    </g>
</svg>