<?xml version="1.0" encoding="UTF-8"?>
<svg width="20px" height="20px" viewBox="0 0 20 20" version="1.1" xmlns="http://www.w3.org/2000/svg" xmlns:xlink="http://www.w3.org/1999/xlink">
    <!-- Generator: Sketch 50.2 (55047) - http://www.bohemiancoding.com/sketch -->
    <title>icon-account</title>
    <desc>Created with Sketch.</desc>
    <defs></defs>
    <g id="Symbols" stroke="none" stroke-width="1" fill="none" fill-rule="evenodd">
        <g id="Navigation" transform="translate(-1215.000000, -28.000000)" fill="#000000" fill-rule="nonzero">
            <g id="icon-account">
                <path d="M1226.30965,35.7454232 C1227.15546,35.1815478 1227.66667,34.2277117 1227.66667,33.1428571 C1227.66667,31.428379 1226.23829,30 1224.52381,30 C1222.80933,30 1221.38095,31.428379 1221.38095,33.1428571 C1221.38095,34.1707089 1221.91602,35.1570361 1222.79105,35.7820569 L1224.46315,36.9764186 L1226.30965,35.7454232 Z M1222.23812,39.3143721 C1219.19986,40.2866153 1217.04598,43.0346153 1217.00073,46 L1232.04689,46 C1232.00164,43.0346153 1229.84776,40.2866153 1226.8095,39.3143721 L1224.52381,38.5829524 L1222.23812,39.3143721 Z M1234.04762,46.0952381 L1234.04762,48 L1215,48 L1215,46.0952381 C1215,42.8742389 1216.86327,39.9553914 1219.60722,38.3212842 C1220.46719,37.833285 1221.14097,37.5293648 1221.62857,37.4095238 C1220.85617,36.6660588 1220.36225,36.1369416 1220.14682,35.8221724 C1219.52059,34.6333908 1219.38095,34.1192593 1219.38095,33.1428571 C1219.38095,30.3238095 1221.70476,28 1224.52381,28 C1227.34286,28 1229.66667,30.3238095 1229.66667,33.1428571 C1229.66667,34.1331071 1229.39866,35.0534413 1228.92708,35.8329687 C1228.49342,36.4500178 1227.99075,36.9755361 1227.41905,37.4095238 C1228.0048,37.5397864 1228.68473,37.8473759 1229.45884,38.3322923 C1232.19269,39.9684783 1234.04762,42.8814588 1234.04762,46.0952381 Z"></path>
            </g>
        </g>
    </g>
</svg>