<?xml version="1.0" encoding="UTF-8"?>
<svg width="167px" height="32px" viewBox="0 0 167 32" version="1.1" xmlns="http://www.w3.org/2000/svg" xmlns:xlink="http://www.w3.org/1999/xlink">
    <!-- Generator: Sketch 50.2 (55047) - http://www.bohemiancoding.com/sketch -->
    <title>Logo</title>
    <desc>Created with Sketch.</desc>
    <defs></defs>
    <g id="Symbols" stroke="none" stroke-width="1" fill="none" fill-rule="evenodd">
        <g id="Header" transform="translate(-140.000000, -62.000000)" fill="#000000" fill-rule="nonzero">
            <g id="Logo">
                <g transform="translate(140.000000, 62.000000)">
                    <path d="M31.1862988,15.6982325 L30.2021277,15.6982325 C28.4508693,15.6982325 27.0290981,17.0110328 27.0290981,18.7622911 C27.0290981,20.1849204 27.4666982,21.8254916 29.3269275,21.8254916 C30.9683568,21.8254916 31.2969859,20.5135495 31.2969859,19.1990331 L31.2969859,15.9161745 C31.2961279,15.9170326 31.4050989,15.6982325 31.1862988,15.6982325 L31.1862988,15.6982325 Z M81.0503986,31.6749255 L77.6036544,31.6749255 C75.1299269,31.37976 72.9874026,30.4350586 72.9874026,28.1724088 C72.9874026,26.5318376 74.847632,25.3271503 76.3792322,25.1092083 C76.3792322,25.1092083 76.8168323,25.0002373 76.3792322,25.0002373 C75.8318031,24.8895502 72.8775736,24.6716082 71.8925444,24.8895502 C71.8925444,24.8895502 71.6737444,24.8895502 71.5639153,24.6716082 C71.4549443,24.4519501 70.9075152,22.9203499 70.7976862,22.8113789 C70.6887152,22.5917208 70.9066572,22.4827498 70.9066572,22.4827498 C73.0955156,22.1541207 75.0647159,21.0601205 75.9407741,20.7314915 C76.4882032,20.6225205 75.9407741,20.5135495 75.9407741,20.5135495 C72.8767155,19.9652623 69.812657,17.8853749 69.812657,14.2756033 C69.812657,9.1325153 74.0805448,6.83468587 78.1287745,6.83468587 C79.9890039,6.83468587 81.0830041,7.16245691 82.0680332,7.27228595 C82.0680332,7.27228595 82.1770042,7.38125695 82.2868333,7.16331495 C82.2868333,6.83554391 82.6154624,5.95948572 82.6154624,5.95948572 C83.0530624,4.64668549 83.7094626,4.09925637 85.6786629,4.09925637 C86.117121,4.09925637 86.5547211,4.09925637 86.8824921,4.20822737 C86.8824921,4.20822737 87.1012922,4.09925637 87.1012922,4.42702741 C86.9923212,4.53599841 86.335063,7.16245691 86.335063,7.27142791 C86.225234,7.60005699 86.116263,7.38039891 86.116263,7.38039891 C85.7876339,7.16159887 85.6778049,7.05262787 84.9124337,7.16159887 C84.4748337,7.16159887 84.2560336,7.49022795 84.2560336,7.92782803 C84.2560336,8.69405718 87.7576923,9.78805737 87.7576923,13.9461161 C87.7576923,19.5268042 82.6146043,20.7306334 78.1279165,21.8246336 C78.1279165,21.8246336 77.6903164,21.9336046 78.1279165,21.9336046 C81.082146,22.2622337 87.2102632,23.0276048 87.2102632,26.8587506 C87.2128373,30.0858366 83.6142202,31.3299937 81.0503986,31.6749255 L81.0503986,31.6749255 Z M38.1896161,22.8113789 L39.0648163,22.8113789 C39.2836163,22.8113789 39.2836163,23.0293209 39.2836163,23.0293209 L39.2836163,24.7805792 C39.2836163,25.1092083 38.9549872,25.0002373 38.9549872,25.0002373 L31.9516699,25.0002373 C31.9516699,25.0002373 31.8426989,25.0002373 31.8426989,24.7805792 C31.7337279,24.3429791 31.5149279,23.9053791 31.5149279,23.577608 C31.4059569,23.140008 31.1862988,23.577608 31.1862988,23.577608 C29.7636695,24.6716082 28.1222402,25.5468084 26.1530399,25.5468084 C22.8701813,25.5468084 20.3535518,23.468637 20.3535518,20.0750913 C20.3535518,15.9170326 22.9800103,13.6200612 26.2628689,13.6200612 L31.2969859,13.4012611 C31.2969859,13.4012611 31.2969859,13.4012611 31.2969859,13.1824611 L31.2969859,12.635032 C31.2969859,11.2124027 30.5307567,10.5560026 28.8893274,10.5560026 C26.810298,10.5560026 25.8252689,11.3222318 24.8410977,12.525203 C24.8410977,12.525203 24.8410977,12.634174 24.6222977,12.634174 C24.4034976,12.525203 22.6530973,11.8679448 22.6530973,11.8679448 C22.6530973,11.8679448 22.4342973,11.8679448 22.5441263,11.6491448 C22.6530973,11.4303447 24.8419557,6.17828576 24.8419557,6.17828576 C24.8419557,6.17828576 24.8419557,5.95948572 24.9509267,6.06931476 C25.2786978,6.17828576 26.592356,6.61674387 26.9201271,6.61674387 C27.137211,6.72485683 27.02824,6.94365687 27.02824,6.94365687 C27.02824,6.94365687 26.918411,7.16245691 26.80944,7.38125695 C26.699611,7.81971507 26.918411,7.60091503 26.918411,7.60091503 C28.3410403,7.05348591 29.7636695,6.83468587 31.1862988,6.83468587 C35.3443576,6.83468587 38.0797871,8.58508618 38.0797871,12.852974 L38.0797871,22.4827498 C38.0797871,22.4827498 38.0797871,22.8113789 38.1896161,22.8113789 L38.1896161,22.8113789 Z M38.6272162,8.1474861 C41.4716167,7.38125695 43.8792752,5.5210276 45.0831044,2.89542714 C45.0831044,2.89542714 45.0831044,2.78645614 45.3019044,2.78645614 C45.5207045,2.78645614 46.9433337,3.11422718 47.1621338,3.11422718 C47.3809338,3.22319818 47.2711048,3.33302722 47.2711048,3.33302722 C47.1621338,4.20822737 47.0523047,5.19325657 47.0523047,5.95948572 L47.0523047,7.27228595 C47.0523047,7.49108599 47.2711048,7.38125695 47.2711048,7.38125695 L50.2253343,7.38125695 C50.4441344,7.38125695 50.3343053,7.60005699 50.3343053,7.60005699 C50.3343053,7.60005699 49.8967052,9.78891541 49.8967052,10.0077155 C49.7877342,10.2265155 49.6779052,10.2265155 49.6779052,10.2265155 L47.2702467,10.2265155 C47.0514467,10.2265155 47.0514467,10.3354865 47.0514467,10.3354865 L47.0514467,20.5126914 C47.0514467,21.7156626 48.0356179,21.9336046 48.583047,21.9336046 C49.1304761,21.9336046 49.2394471,21.9336046 49.6770472,21.7156626 C49.6770472,21.7156626 49.8958472,21.4960045 49.8958472,21.7156626 C50.0048182,21.9336046 50.5531054,23.3562339 50.6620764,23.575892 C50.7710474,23.684863 50.5531054,23.793834 50.5531054,23.793834 C48.2552759,25.4361213 48.0356179,25.5450923 44.9724173,25.5450923 C41.5797297,25.5450923 40.3767585,23.904521 40.3767585,20.8396044 L40.3767585,10.3363445 C40.3767585,10.3363445 40.3767585,10.2273735 40.1579584,10.2273735 L38.6263582,10.2273735 C38.6263582,10.2273735 38.5165291,10.2273735 38.5165291,10.0085735 L38.5165291,8.36714418 C38.5173872,8.25731514 38.6272162,8.1474861 38.6272162,8.1474861 L38.6272162,8.1474861 Z M88.5256375,16.1366906 C88.5256375,10.4461736 93.0123254,6.83554391 98.9207844,6.83554391 C104.829244,6.83554391 109.42576,10.4461736 109.42576,16.1366906 C109.42576,22.0460078 104.830102,25.5468084 98.9207844,25.5468084 C93.0114673,25.5468084 88.5256375,22.0451497 88.5256375,16.1366906 L88.5256375,16.1366906 Z M95.3092967,13.6192031 C95.3092967,16.2456616 96.4032969,22.8113789 100.123756,22.8113789 C102.093814,22.8113789 102.641243,20.7314915 102.641243,18.7622911 C102.641243,16.1358326 101.547243,9.57011537 97.7169552,9.57011537 C95.3092967,9.57011537 95.3092967,12.3055449 95.3092967,13.6192031 L95.3092967,13.6192031 Z M130.216912,25.0002373 L121.024737,25.0002373 C121.024737,25.0002373 120.915766,25.0002373 120.915766,24.8895502 L120.915766,23.0293209 C120.915766,22.8113789 121.134566,22.8113789 121.134566,22.8113789 L122.228566,22.8113789 C122.337537,22.8113789 122.337537,22.7006918 122.337537,22.7006918 L122.337537,12.743145 C122.337537,11.6491448 121.353366,11.2106866 120.368336,11.2106866 C119.164507,11.2106866 118.288449,11.7581158 117.414107,12.5243449 C117.414107,12.5243449 117.304278,12.6333159 117.304278,12.743145 L117.304278,22.6998338 C117.304278,22.6998338 117.304278,22.8105208 117.414107,22.8105208 L118.617078,22.8105208 C118.617078,22.8105208 118.726907,22.8105208 118.726907,23.0284628 L118.726907,24.8886922 C118.726907,24.9993793 118.617078,24.9993793 118.617078,24.9993793 L109.42576,24.9993793 C109.42576,24.9993793 109.315931,25.1083503 109.315931,24.7797212 L109.315931,23.0284628 C109.315931,22.8105208 109.42576,22.8105208 109.42576,22.8105208 L110.409932,22.8105208 C110.628732,22.8105208 110.519761,22.6998338 110.519761,22.6998338 L110.519761,10.9927446 C110.519761,10.9927446 110.628732,10.7739446 110.409932,10.7739446 C110.081302,10.8829156 109.42576,11.1025737 109.42576,11.1025737 C109.42576,11.1025737 109.315931,11.2115447 109.315931,10.9927446 L109.315931,9.1325153 C109.315931,8.91371526 109.42576,9.0235443 109.42576,9.0235443 L117.194449,6.94451491 C117.194449,6.94451491 117.414107,6.83554391 117.414107,7.05434395 L117.414107,9.57097341 C117.414107,9.89960249 117.523078,9.67994441 117.523078,9.67994441 C119.383307,8.25731514 121.243537,6.83554391 123.761024,6.83554391 C128.465654,6.83554391 129.122912,10.0085735 129.122912,11.9786319 L129.122912,22.7015498 C129.122912,22.7015498 129.013083,22.8122369 129.231883,22.8122369 L130.216912,22.8122369 C130.216912,22.8122369 130.325883,22.8122369 130.325883,23.0301789 L130.325883,24.7814373 C130.325883,25.1092083 130.216912,25.0002373 130.216912,25.0002373 L130.216912,25.0002373 Z M139.518059,6.94365687 L131.748513,9.02268626 C131.748513,9.02268626 131.638684,9.02268626 131.638684,9.2414863 L131.638684,10.9927446 C131.638684,11.2115447 131.858342,11.1025737 131.858342,11.1025737 C131.858342,11.1025737 132.405771,10.9927446 132.842513,10.8837736 C133.061313,10.8837736 132.952342,11.1025737 132.952342,11.2115447 L132.952342,22.7006918 C132.952342,22.7006918 133.061313,22.8113789 132.842513,22.8113789 L131.748513,22.8113789 C131.748513,22.8113789 131.529713,22.8113789 131.529713,23.0293209 L131.529713,24.8895502 C131.529713,25.1092083 131.748513,25.0002373 131.748513,25.0002373 L140.830859,25.0002373 C141.049659,25.0002373 140.940688,24.7805792 140.940688,24.7805792 L140.940688,23.0293209 C140.940688,22.8113789 140.72103,22.8113789 140.72103,22.8113789 L139.84583,22.8113789 C139.62703,22.8113789 139.736001,22.7006918 139.736001,22.7006918 L139.736001,7.05348591 C139.736001,6.83468587 139.518059,6.94365687 139.518059,6.94365687 L139.518059,6.94365687 Z M136.781771,1.47279787 C138.31423,1.47279787 140.06463,1.91039795 140.06463,3.7706273 C140.06463,5.95948572 137.110401,6.83468587 135.250171,6.83468587 C133.718571,6.83468587 132.732684,6.06845672 132.732684,4.53685645 C132.732684,2.7855981 135.140342,1.47279787 136.781771,1.47279787 L136.781771,1.47279787 Z M61.6063685,15.6982325 L60.7311683,15.6982325 C58.870939,15.6982325 57.5581387,17.0110328 57.5581387,18.7622911 C57.5581387,20.1849204 57.9957388,21.8254916 59.7469972,21.8254916 C61.4982555,21.8254916 61.8260265,20.5135495 61.8260265,19.1990331 L61.8260265,15.9161745 C61.8251685,15.9170326 61.8251685,15.6982325 61.6063685,15.6982325 L61.6063685,15.6982325 Z M68.7195148,22.8113789 L69.485744,22.8113789 C69.8143731,22.8113789 69.8143731,23.0293209 69.8143731,23.0293209 L69.8143731,24.7805792 C69.8143731,25.1092083 69.485744,25.0002373 69.485744,25.0002373 L62.4824267,25.0002373 C62.4824267,25.0002373 62.3734557,25.0002373 62.2636266,24.7805792 C62.1546556,24.3429791 62.0448266,23.9053791 62.0448266,23.577608 C61.9358556,23.140008 61.7170555,23.577608 61.7170555,23.577608 C60.1845972,24.6716082 58.652997,25.5468084 56.6837966,25.5468084 C53.291109,25.5468084 50.7744795,23.468637 50.7744795,20.0750913 C50.7744795,15.9170326 53.509909,13.5102321 56.7927676,13.5102321 L61.7170555,13.4012611 C61.7170555,13.4012611 61.8260265,13.4012611 61.8260265,13.1824611 L61.8260265,12.635032 C61.8260265,11.2124027 61.0597974,10.5560026 59.4183681,10.5560026 C57.3393387,10.5560026 56.3543095,11.3222318 55.3692803,12.525203 C55.3692803,12.525203 55.2603093,12.634174 55.1504803,12.525203 C54.9316802,12.525203 53.0714509,11.8688028 53.0714509,11.8688028 C53.0714509,11.8688028 52.9624799,11.8688028 53.0714509,11.6500028 C53.1812799,11.4312028 55.2603093,6.1791438 55.2603093,6.1791438 C55.2603093,6.1791438 55.2603093,5.96034376 55.4791094,6.0701728 C55.6979094,6.1791438 57.1205387,6.61760191 57.3393387,6.61760191 C57.5581387,6.72657291 57.4491677,6.94537295 57.4491677,6.94537295 C57.4491677,6.94537295 57.4491677,7.16417299 57.3393387,7.38297303 C57.1196806,7.81971507 57.4483097,7.60091503 57.4483097,7.60091503 C58.870939,7.05348591 60.2935682,6.83468587 61.7161975,6.83468587 C65.8742563,6.83468587 68.6096858,8.58508618 68.6096858,12.852974 L68.6096858,22.4827498 C68.6096858,22.4827498 68.4998567,22.8113789 68.7195148,22.8113789 L68.7195148,22.8113789 Z M75.9416322,11.5401738 C75.9416322,13.5093741 77.0356324,18.8712621 79.7710619,18.8712621 C81.1936911,18.8712621 81.7402622,18.214004 81.7402622,16.4644617 C81.7402622,14.4944033 80.536433,9.1325153 77.8010035,9.1325153 C76.4890613,9.1325153 75.9416322,9.78977345 75.9416322,11.5401738 L75.9416322,11.5401738 Z M78.7860327,25.8745794 C78.4582616,26.2032085 78.2386036,27.4061797 78.2386036,28.1724088 C78.2386036,29.047609 78.6762036,30.0326382 79.7710619,30.0326382 C80.646262,30.0326382 81.1936911,29.5950381 81.1936911,28.720696 C81.1936911,27.0784086 80.20952,26.5318376 79.0048327,25.7664665 C79.0048327,25.7656084 78.8958617,25.7656084 78.7860327,25.8745794 L78.7860327,25.8745794 Z M151.773435,15.6982325 L150.897377,15.6982325 C149.038006,15.6982325 147.724348,17.0110328 147.724348,18.7622911 C147.724348,20.1849204 148.162806,21.8254916 149.913206,21.8254916 C151.664464,21.8254916 151.992235,20.5135495 151.992235,19.1990331 L151.992235,15.9161745 C151.992235,15.9170326 151.992235,15.6982325 151.773435,15.6982325 L151.773435,15.6982325 Z M158.886582,22.8113789 L159.761782,22.8113789 C159.98144,22.8113789 159.98144,23.0293209 159.98144,23.0293209 L159.98144,24.7805792 C159.98144,25.1092083 159.652811,25.0002373 159.652811,25.0002373 L152.649493,25.0002373 C152.649493,25.0002373 152.539664,25.0002373 152.430693,24.7805792 C152.320864,24.3429791 152.211893,23.9053791 152.211893,23.577608 C152.102064,23.140008 151.883264,23.577608 151.883264,23.577608 C150.351664,24.6716082 148.819206,25.5468084 146.850005,25.5468084 C143.457318,25.5468084 140.940688,23.468637 140.940688,20.0750913 C140.940688,15.9170326 143.676118,13.5102321 146.958976,13.5102321 L151.883264,13.4012611 C151.883264,13.4012611 151.992235,13.4012611 151.992235,13.1824611 L151.992235,12.635032 C151.992235,11.2124027 151.226006,10.5560026 149.584577,10.5560026 C147.505547,10.5560026 146.521376,11.3222318 145.535489,12.525203 C145.535489,12.525203 145.426518,12.634174 145.316689,12.525203 C145.097889,12.525203 143.347489,11.8688028 143.347489,11.8688028 C143.347489,11.8688028 143.127831,11.8688028 143.23766,11.6500028 C143.347489,11.4312028 145.426518,6.1791438 145.426518,6.1791438 C145.426518,6.1791438 145.426518,5.96034376 145.645318,6.0701728 C145.864118,6.18000184 147.286747,6.61760191 147.505547,6.61760191 C147.724348,6.72657291 147.724348,6.94537295 147.724348,6.94537295 C147.724348,6.94537295 147.615377,7.16417299 147.505547,7.38297303 C147.286747,7.82057311 147.615377,7.60177307 147.615377,7.60177307 C149.038006,7.05434395 150.459777,6.83554391 151.883264,6.83554391 C156.041323,6.83554391 158.776753,8.58594422 158.776753,12.853832 L158.776753,22.4836078 C158.776753,22.4827498 158.776753,22.8113789 158.886582,22.8113789 L158.886582,22.8113789 Z M8.0973175,11.1025737 L8.0973175,19.9661203 C8.0973175,21.4977206 8.64474662,22.8113789 10.3951469,22.8113789 C12.5831473,22.8113789 13.5681765,21.4977206 13.5681765,17.4486328 C13.5681765,10.9927446 10.2853179,10.6649736 9.19045965,10.6649736 L8.3152595,10.7739446 C8.31611754,10.7739446 8.0973175,10.8829156 8.0973175,11.1025737 L8.0973175,11.1025737 Z M8.2062885,8.47611518 C9.84771781,7.49194403 11.051547,6.83468587 12.6929763,6.83468587 C16.9608642,6.83468587 20.3526938,10.3363445 20.3526938,15.4794325 C20.3526938,20.5135495 17.1796642,25.5459503 11.7079472,25.5459503 C10.613947,25.5459503 9.19045965,25.4369793 8.2062885,24.8886922 C8.2062885,24.8886922 8.0973175,24.8886922 8.0973175,24.9993793 L8.0973175,28.1715508 C8.0973175,28.1715508 8.0973175,28.3912089 8.31611754,28.3912089 L10.2853179,28.3912089 C10.2853179,28.3912089 10.5041179,28.3912089 10.5041179,28.6091509 L10.5041179,30.3604092 C10.5041179,30.4693802 10.2853179,30.5800673 10.2853179,30.5800673 L0.327771038,30.5800673 C0.327771038,30.5800673 9.52615061e-17,30.5800673 9.52615061e-17,30.3604092 L9.52615061e-17,30.3432484 L9.52615061e-17,30.3260876 L9.52615061e-17,30.3080688 L9.52615061e-17,30.29005 L9.52615061e-17,30.2703151 L9.52615061e-17,30.2488641 L9.52615061e-17,30.2274131 L9.52615061e-17,30.2059621 L9.52615061e-17,30.181079 L9.52615061e-17,30.1579119 L9.52615061e-17,30.1330288 L9.52615061e-17,30.1064296 L9.52615061e-17,30.0798303 L9.52615061e-17,30.0532311 L9.52615061e-17,30.0249158 L9.52615061e-17,29.9957425 L9.52615061e-17,29.9657111 L9.52615061e-17,29.9356797 L9.52615061e-17,29.9056484 L9.52615061e-17,29.875617 L9.52615061e-17,29.8438695 L9.52615061e-17,29.8138381 L9.52615061e-17,29.7803746 L9.52615061e-17,29.7503432 L9.52615061e-17,29.7168797 L9.52615061e-17,29.6834162 L9.52615061e-17,29.6516687 L9.52615061e-17,29.6199212 L9.52615061e-17,29.5864577 L9.52615061e-17,29.5529942 L9.52615061e-17,29.5195306 L9.52615061e-17,29.4860671 L9.52615061e-17,29.4526036 L9.52615061e-17,29.41914 L9.52615061e-17,29.3856765 L9.52615061e-17,29.352213 L9.52615061e-17,29.3187494 L9.52615061e-17,29.287002 L9.52615061e-17,29.2552545 L9.52615061e-17,29.2235071 L9.52615061e-17,29.1900435 L9.52615061e-17,29.1582961 L9.52615061e-17,29.1282647 L9.52615061e-17,29.0965172 L9.52615061e-17,29.0664859 L9.52615061e-17,29.0364545 L9.52615061e-17,29.0064231 L9.52615061e-17,28.9781078 L9.52615061e-17,28.9497925 L9.52615061e-17,28.9214772 L9.52615061e-17,28.894878 L9.52615061e-17,28.8682788 L9.52615061e-17,28.8416795 L9.52615061e-17,28.8167964 L9.52615061e-17,28.7936293 L9.52615061e-17,28.7704623 L9.52615061e-17,28.7472952 L9.52615061e-17,28.7258442 L9.52615061e-17,28.7061093 L9.52615061e-17,28.6863744 L9.52615061e-17,28.6666395 L9.52615061e-17,28.6494787 L9.52615061e-17,28.6314599 L9.52615061e-17,28.6160152 C9.52615061e-17,28.3980732 0.218800038,28.3980732 0.218800038,28.3980732 L1.09400019,28.3980732 C1.31280023,28.3980732 1.31280023,28.1784151 1.31280023,28.1784151 L1.31280023,10.9987509 C1.31280023,10.7799509 1.09400019,10.8897799 1.09400019,10.8897799 L0.218800038,11.10858 C0.218800038,11.10858 0,11.10858 0,10.8897799 L0,10.8777674 L0,10.8657548 L0,10.8503101 L0,10.8348654 L0,10.8177046 L0,10.7996858 L0,10.7799509 L0,10.7593579 L0,10.7370489 L0,10.7147399 L0,10.6898567 L0,10.6649736 L0,10.6383744 L0,10.6117752 L0,10.5834599 L0,10.5551446 L0,10.5242551 L0,10.4942238 L0,10.4624763 L0,10.4307289 L0,10.3972653 L0,10.3646598 L0,10.3311963 L0,10.2968747 L0,10.2616951 L0,10.2265155 L0,10.1904778 L0,10.1552982 L0,10.1192606 L0,10.0832229 L0,10.0471853 L0,10.0120056 L0,9.97596799 L0,9.93993034 L0,9.90389269 L0,9.86871307 L0,9.83267542 L0,9.79749581 L0,9.76231619 L0,9.72799462 L0,9.69367304 L0,9.65935147 L0,9.62588793 L0,9.59328244 L0,9.56067694 L0,9.52978752 L0,9.49889811 L0,9.46972477 L0,9.43969339 L0,9.41137809 L0,9.38306279 L0,9.35732161 L0,9.33158043 L0,9.30755533 L0,9.28438826 L0,9.26293728 L0,9.24234434 L0,9.22260943 L0,9.2045906 L0,9.18742982 L0,9.17198511 L0,9.15825648 L0,9.14538589 L0,9.13508941 C0,8.91628938 0.218800038,8.91628938 0.218800038,8.91628938 L7.87851746,6.94623099 C7.87851746,6.94623099 8.0973175,6.83725999 8.0973175,7.05606003 L8.0973175,8.36886026 C8.0973175,8.58508618 8.2062885,8.47611518 8.2062885,8.47611518 L8.2062885,8.47611518 Z" id="Patagonia"></path>
                    <path d="M161.203856,2.49256383 C161.203856,1.13346809 162.336436,0 163.69642,0 C165.056404,0 166.188984,1.13257979 166.188984,2.49256383 C166.188984,3.9653617 165.057293,5.09794149 163.69642,5.09794149 C162.336436,5.09794149 161.203856,3.9644734 161.203856,2.49256383 L161.203856,2.49256383 Z M165.848766,2.49256383 C165.848766,1.35998404 164.941814,0.340218085 163.695532,0.340218085 C162.450138,0.340218085 161.430372,1.35998404 161.430372,2.49256383 C161.430372,3.73884574 162.44925,4.7586117 163.695532,4.7586117 C164.942702,4.7577234 165.848766,3.73795745 165.848766,2.49256383 L165.848766,2.49256383 Z M164.942702,3.9644734 L164.48967,3.9644734 L163.695532,2.60537766 L163.129686,2.60537766 L163.129686,3.9644734 L162.789468,3.9644734 L162.789468,1.13257979 L163.922048,1.13257979 C164.148564,1.13257979 164.488782,1.13257979 164.601596,1.24539362 C164.828112,1.35909574 164.941814,1.69842553 164.941814,1.92494149 C164.941814,2.3779734 164.601596,2.60537766 164.034862,2.60537766 L164.942702,3.9644734 L164.942702,3.9644734 Z M163.582718,2.3788617 C164.03575,2.3788617 164.601596,2.49167553 164.601596,1.92582979 C164.601596,1.47279787 164.262266,1.35998404 163.922048,1.35998404 L163.128798,1.35998404 L163.128798,2.3788617 L163.582718,2.3788617 L163.582718,2.3788617 Z" id="Trademark"></path>
                </g>
            </g>
        </g>
    </g>
</svg>